# xmcd
# Copyright (C) 1995-1998 Ti Kan
#
# Track frame offsets:
#       150
#       14752
#       35753
#       51235
#       68190
#       88908
#       106439
#       119440
#       131127
#       147533
#
# Disc length: 2153 seconds
#
# Revision: 0
# Processed by: cddbd v1.5.2PL0 Copyright (c) Steve Scherf et al.
# Submitted via: CD-Import v1.0
#
DISCID=a008670a
DTITLE=Lloyd Cole And The Commmotions - Rattlesnakes
DYEAR=1984
DGENRE=
TTITLE0=Perfect Skin
TTITLE1=Speedboat
TTITLE2=Rattlesnakes
TTITLE3=Down On Mission Street
TTITLE4=Forest Fire
TTITLE5=Forest Fire
TTITLE6=2cv
TTITLE7=2cv
TTITLE8=Patience
TTITLE9=Are You Ready To Be Heartbroken?
EXTD=
EXTT0=
EXTT1=
EXTT2=
EXTT3=
EXTT4=
EXTT5=
EXTT6=
EXTT7=
EXTT8=
EXTT9=
PLAYORDER=
